<mxfile host="app.diagrams.net" modified="2020-11-02T08:54:04.174Z" agent="5.0 (Windows NT 10.0; Win64; x64) AppleWebKit/537.36 (KHTML, like Gecko) Chrome/86.0.4240.111 Safari/537.36" etag="cdSMc5OcuLdBOYc8-uq5" version="13.8.8" type="github" pages="2">
  <diagram id="0C442tjUMzfvRgD-rWmv" name="Page-1">
    <mxGraphModel dx="1080" dy="410" grid="1" gridSize="10" guides="1" tooltips="1" connect="1" arrows="1" fold="1" page="1" pageScale="1" pageWidth="827" pageHeight="1169" background="#DAD2D8" math="0" shadow="0">
      <root>
        <mxCell id="0" />
        <mxCell id="1" parent="0" />
        <mxCell id="Aq8MUgiEz7kiHm_kLCTz-1" value="User" style="shape=umlActor;verticalLabelPosition=bottom;verticalAlign=top;html=1;fillColor=#FAE5C7;strokeColor=#0F8B8D;fontColor=#143642;" parent="1" vertex="1">
          <mxGeometry x="50" y="230" width="60" height="140" as="geometry" />
        </mxCell>
        <mxCell id="Aq8MUgiEz7kiHm_kLCTz-2" value="协同日历系统" style="shape=umlFrame;whiteSpace=wrap;html=1;fillColor=#FAE5C7;strokeColor=#0F8B8D;fontColor=#143642;" parent="1" vertex="1">
          <mxGeometry x="160" y="30" width="610" height="650" as="geometry" />
        </mxCell>
        <mxCell id="Aq8MUgiEz7kiHm_kLCTz-7" value="&lt;font style=&quot;font-size: 10px&quot;&gt;查看个人日历&lt;/font&gt;" style="ellipse;whiteSpace=wrap;html=1;fillColor=#FAE5C7;strokeColor=#0F8B8D;fontColor=#143642;" parent="1" vertex="1">
          <mxGeometry x="180" y="75" width="110" height="60" as="geometry" />
        </mxCell>
        <mxCell id="Aq8MUgiEz7kiHm_kLCTz-8" value="&lt;span style=&quot;font-size: 10px&quot;&gt;创建群组&lt;br&gt;----------------------------&lt;br&gt;扩展点：发布任务，删除任务&lt;br&gt;&lt;/span&gt;" style="ellipse;whiteSpace=wrap;html=1;fillColor=#FAE5C7;strokeColor=#0F8B8D;fontColor=#143642;" parent="1" vertex="1">
          <mxGeometry x="290" y="290" width="117.5" height="70" as="geometry" />
        </mxCell>
        <mxCell id="Aq8MUgiEz7kiHm_kLCTz-9" value="接受群组邀请&lt;br&gt;------------------------------&lt;br&gt;扩展点：提出待办事项，查看群日历" style="ellipse;whiteSpace=wrap;html=1;fillColor=#FAE5C7;strokeColor=#0F8B8D;fontColor=#143642;" parent="1" vertex="1">
          <mxGeometry x="195" y="500" width="125" height="70" as="geometry" />
        </mxCell>
        <mxCell id="Aq8MUgiEz7kiHm_kLCTz-13" value="&lt;font style=&quot;font-size: 11px&quot;&gt;发布任务&lt;/font&gt;" style="ellipse;whiteSpace=wrap;html=1;fillColor=#FAE5C7;strokeColor=#0F8B8D;fontColor=#143642;" parent="1" vertex="1">
          <mxGeometry x="475" y="200" width="110" height="61" as="geometry" />
        </mxCell>
        <mxCell id="Aq8MUgiEz7kiHm_kLCTz-14" value="提出待办事项" style="ellipse;whiteSpace=wrap;html=1;fillColor=#FAE5C7;strokeColor=#0F8B8D;fontColor=#143642;" parent="1" vertex="1">
          <mxGeometry x="520" y="552" width="117.5" height="65" as="geometry" />
        </mxCell>
        <mxCell id="Aq8MUgiEz7kiHm_kLCTz-16" value="规定任务紧迫级别" style="ellipse;whiteSpace=wrap;html=1;fillColor=#FAE5C7;strokeColor=#0F8B8D;fontColor=#143642;" parent="1" vertex="1">
          <mxGeometry x="560" y="70" width="110" height="70" as="geometry" />
        </mxCell>
        <mxCell id="Aq8MUgiEz7kiHm_kLCTz-17" value="赞同/否决待办事项" style="ellipse;whiteSpace=wrap;html=1;fillColor=#FAE5C7;strokeColor=#0F8B8D;fontColor=#143642;" parent="1" vertex="1">
          <mxGeometry x="280" y="385" width="120" height="70" as="geometry" />
        </mxCell>
        <mxCell id="Aq8MUgiEz7kiHm_kLCTz-19" value="" style="endArrow=none;html=1;entryX=1;entryY=0.3333333333333333;entryDx=0;entryDy=0;entryPerimeter=0;strokeColor=#A8201A;fontColor=#143642;labelBackgroundColor=#DAD2D8;" parent="1" source="Aq8MUgiEz7kiHm_kLCTz-7" target="Aq8MUgiEz7kiHm_kLCTz-1" edge="1">
          <mxGeometry width="50" height="50" relative="1" as="geometry">
            <mxPoint x="124.28932188134524" y="165" as="sourcePoint" />
            <mxPoint x="124.28932188134524" y="115" as="targetPoint" />
          </mxGeometry>
        </mxCell>
        <mxCell id="Aq8MUgiEz7kiHm_kLCTz-20" value="" style="endArrow=none;html=1;entryX=0;entryY=0.5;entryDx=0;entryDy=0;exitX=0.5;exitY=0.5;exitDx=0;exitDy=0;exitPerimeter=0;strokeColor=#A8201A;fontColor=#143642;labelBackgroundColor=#DAD2D8;" parent="1" source="Aq8MUgiEz7kiHm_kLCTz-1" target="Aq8MUgiEz7kiHm_kLCTz-8" edge="1">
          <mxGeometry width="50" height="50" relative="1" as="geometry">
            <mxPoint x="100" y="380" as="sourcePoint" />
            <mxPoint x="190" y="210" as="targetPoint" />
          </mxGeometry>
        </mxCell>
        <mxCell id="Aq8MUgiEz7kiHm_kLCTz-21" value="" style="endArrow=none;html=1;entryX=1;entryY=1;entryDx=0;entryDy=0;entryPerimeter=0;strokeColor=#A8201A;fontColor=#143642;labelBackgroundColor=#DAD2D8;" parent="1" source="Aq8MUgiEz7kiHm_kLCTz-9" target="Aq8MUgiEz7kiHm_kLCTz-1" edge="1">
          <mxGeometry width="50" height="50" relative="1" as="geometry">
            <mxPoint x="124.28932188134524" y="375" as="sourcePoint" />
            <mxPoint x="124.28932188134524" y="325" as="targetPoint" />
          </mxGeometry>
        </mxCell>
        <mxCell id="Aq8MUgiEz7kiHm_kLCTz-26" value="&amp;lt;&amp;lt;include&amp;gt;&amp;gt;" style="endArrow=open;endSize=12;dashed=1;html=1;exitX=0.5;exitY=0;exitDx=0;exitDy=0;strokeColor=#A8201A;fontColor=#143642;labelBackgroundColor=#DAD2D8;" parent="1" source="Aq8MUgiEz7kiHm_kLCTz-13" target="Aq8MUgiEz7kiHm_kLCTz-16" edge="1">
          <mxGeometry width="160" relative="1" as="geometry">
            <mxPoint x="370" y="130" as="sourcePoint" />
            <mxPoint x="530" y="130" as="targetPoint" />
          </mxGeometry>
        </mxCell>
        <mxCell id="Aq8MUgiEz7kiHm_kLCTz-27" value="&amp;lt;&amp;lt;extend&amp;gt;&amp;gt;" style="endArrow=open;endSize=12;dashed=1;html=1;entryX=0.924;entryY=0.228;entryDx=0;entryDy=0;entryPerimeter=0;exitX=0.075;exitY=0.784;exitDx=0;exitDy=0;exitPerimeter=0;strokeColor=#A8201A;fontColor=#143642;labelBackgroundColor=#DAD2D8;" parent="1" source="Aq8MUgiEz7kiHm_kLCTz-13" target="Aq8MUgiEz7kiHm_kLCTz-8" edge="1">
          <mxGeometry width="160" relative="1" as="geometry">
            <mxPoint x="320" y="170" as="sourcePoint" />
            <mxPoint x="480" y="170" as="targetPoint" />
          </mxGeometry>
        </mxCell>
        <mxCell id="Aq8MUgiEz7kiHm_kLCTz-28" value="" style="endArrow=none;html=1;exitX=0.01;exitY=0.657;exitDx=0;exitDy=0;exitPerimeter=0;entryX=1;entryY=1;entryDx=0;entryDy=0;entryPerimeter=0;strokeColor=#A8201A;fontColor=#143642;labelBackgroundColor=#DAD2D8;" parent="1" source="Aq8MUgiEz7kiHm_kLCTz-17" target="Aq8MUgiEz7kiHm_kLCTz-1" edge="1">
          <mxGeometry width="50" height="50" relative="1" as="geometry">
            <mxPoint x="70" y="250" as="sourcePoint" />
            <mxPoint x="90" y="200" as="targetPoint" />
          </mxGeometry>
        </mxCell>
        <mxCell id="Aq8MUgiEz7kiHm_kLCTz-35" value="&lt;font style=&quot;font-size: 6px ; line-height: 10%&quot;&gt;扩展条件：{有任务需要发布，成员提出的待办事项通过}&lt;br style=&quot;font-size: 6px&quot;&gt;扩展点：发布任务&lt;/font&gt;" style="shape=note;whiteSpace=wrap;html=1;size=14;verticalAlign=top;align=left;spacingTop=-6;fillColor=#FAE5C7;strokeColor=#0F8B8D;fontColor=#143642;" parent="1" vertex="1">
          <mxGeometry x="340" y="90" width="130" height="75" as="geometry" />
        </mxCell>
        <mxCell id="Aq8MUgiEz7kiHm_kLCTz-36" value="" style="endArrow=none;dashed=1;html=1;exitX=1;exitY=1;exitDx=0;exitDy=0;exitPerimeter=0;strokeColor=#A8201A;fontColor=#143642;labelBackgroundColor=#DAD2D8;" parent="1" source="Aq8MUgiEz7kiHm_kLCTz-35" edge="1">
          <mxGeometry width="50" height="50" relative="1" as="geometry">
            <mxPoint x="385" y="100" as="sourcePoint" />
            <mxPoint x="460" y="260" as="targetPoint" />
          </mxGeometry>
        </mxCell>
        <mxCell id="Aq8MUgiEz7kiHm_kLCTz-46" value="&amp;lt;&amp;lt;extend&amp;gt;&amp;gt;" style="endArrow=open;endSize=12;dashed=1;html=1;entryX=1;entryY=0.5;entryDx=0;entryDy=0;exitX=0;exitY=0.5;exitDx=0;exitDy=0;strokeColor=#A8201A;fontColor=#143642;labelBackgroundColor=#DAD2D8;" parent="1" source="Aq8MUgiEz7kiHm_kLCTz-14" target="Aq8MUgiEz7kiHm_kLCTz-9" edge="1">
          <mxGeometry width="160" relative="1" as="geometry">
            <mxPoint x="410" y="200" as="sourcePoint" />
            <mxPoint x="570" y="200" as="targetPoint" />
          </mxGeometry>
        </mxCell>
        <mxCell id="Aq8MUgiEz7kiHm_kLCTz-49" value="扩展条件：{成员想到一个新的待办事项}&lt;br&gt;扩展点：提出待办事项&lt;br&gt;" style="shape=note;whiteSpace=wrap;html=1;size=14;verticalAlign=top;align=left;spacingTop=-6;rounded=0;sketch=0;fillColor=#FAE5C7;strokeColor=#0F8B8D;fontColor=#143642;" parent="1" vertex="1">
          <mxGeometry x="355" y="470" width="135" height="60" as="geometry" />
        </mxCell>
        <mxCell id="Aq8MUgiEz7kiHm_kLCTz-50" value="" style="endArrow=none;dashed=1;html=1;strokeColor=#A8201A;fontColor=#143642;labelBackgroundColor=#DAD2D8;" parent="1" target="Aq8MUgiEz7kiHm_kLCTz-49" edge="1">
          <mxGeometry width="50" height="50" relative="1" as="geometry">
            <mxPoint x="490" y="580" as="sourcePoint" />
            <mxPoint x="420" y="220" as="targetPoint" />
          </mxGeometry>
        </mxCell>
        <mxCell id="Aq8MUgiEz7kiHm_kLCTz-57" value="规定任务执行人" style="ellipse;whiteSpace=wrap;html=1;rounded=0;sketch=0;fillColor=#FAE5C7;strokeColor=#0F8B8D;fontColor=#143642;" parent="1" vertex="1">
          <mxGeometry x="620" y="280" width="100" height="60" as="geometry" />
        </mxCell>
        <mxCell id="Aq8MUgiEz7kiHm_kLCTz-58" value="&amp;lt;&amp;lt;include&amp;gt;&amp;gt;" style="endArrow=open;endSize=12;dashed=1;html=1;entryX=0.5;entryY=0;entryDx=0;entryDy=0;exitX=0.5;exitY=1;exitDx=0;exitDy=0;strokeColor=#A8201A;fontColor=#143642;labelBackgroundColor=#DAD2D8;" parent="1" source="Aq8MUgiEz7kiHm_kLCTz-13" target="Aq8MUgiEz7kiHm_kLCTz-57" edge="1">
          <mxGeometry width="160" relative="1" as="geometry">
            <mxPoint x="590" y="230" as="sourcePoint" />
            <mxPoint x="660" y="220" as="targetPoint" />
            <Array as="points" />
          </mxGeometry>
        </mxCell>
        <mxCell id="lOJWtZVQG0SMTf90hQuc-2" value="标注非空闲时间" style="ellipse;whiteSpace=wrap;html=1;rounded=0;sketch=0;fillColor=#FAE5C7;strokeColor=#0F8B8D;fontColor=#143642;" parent="1" vertex="1">
          <mxGeometry x="200" y="190" width="120" height="67" as="geometry" />
        </mxCell>
        <mxCell id="lOJWtZVQG0SMTf90hQuc-5" value="" style="endArrow=none;html=1;exitX=1;exitY=0.3333333333333333;exitDx=0;exitDy=0;exitPerimeter=0;entryX=0;entryY=1;entryDx=0;entryDy=0;strokeColor=#A8201A;fontColor=#143642;labelBackgroundColor=#DAD2D8;" parent="1" source="Aq8MUgiEz7kiHm_kLCTz-1" target="lOJWtZVQG0SMTf90hQuc-2" edge="1">
          <mxGeometry width="50" height="50" relative="1" as="geometry">
            <mxPoint x="190" y="290" as="sourcePoint" />
            <mxPoint x="240" y="240" as="targetPoint" />
          </mxGeometry>
        </mxCell>
        <mxCell id="lOJWtZVQG0SMTf90hQuc-6" value="规定任务时间/内容" style="ellipse;whiteSpace=wrap;html=1;fillColor=#FAE5C7;strokeColor=#0F8B8D;fontColor=#143642;" parent="1" vertex="1">
          <mxGeometry x="640" y="150" width="110" height="70" as="geometry" />
        </mxCell>
        <mxCell id="lOJWtZVQG0SMTf90hQuc-7" value="&amp;lt;&amp;lt;include&amp;gt;&amp;gt;" style="endArrow=open;endSize=12;dashed=1;html=1;exitX=1;exitY=0.5;exitDx=0;exitDy=0;entryX=0;entryY=0.5;entryDx=0;entryDy=0;strokeColor=#A8201A;fontColor=#143642;labelBackgroundColor=#DAD2D8;" parent="1" source="Aq8MUgiEz7kiHm_kLCTz-13" target="lOJWtZVQG0SMTf90hQuc-6" edge="1">
          <mxGeometry width="160" relative="1" as="geometry">
            <mxPoint x="540" y="210" as="sourcePoint" />
            <mxPoint x="597.7862744685633" y="145.41534029984098" as="targetPoint" />
          </mxGeometry>
        </mxCell>
        <mxCell id="5eROo0eHRWx0oekMJlQm-1" value="删除任务" style="ellipse;whiteSpace=wrap;html=1;fillColor=#FAE5C7;strokeColor=#0F8B8D;fontColor=#143642;" parent="1" vertex="1">
          <mxGeometry x="630" y="360" width="105" height="55" as="geometry" />
        </mxCell>
        <mxCell id="5eROo0eHRWx0oekMJlQm-2" value="&amp;lt;&amp;lt;extend&amp;gt;&amp;gt;" style="endArrow=open;endSize=12;dashed=1;html=1;exitX=0;exitY=0.5;exitDx=0;exitDy=0;entryX=1;entryY=1;entryDx=0;entryDy=0;strokeColor=#A8201A;fontColor=#143642;labelBackgroundColor=#DAD2D8;" parent="1" source="5eROo0eHRWx0oekMJlQm-1" target="Aq8MUgiEz7kiHm_kLCTz-8" edge="1">
          <mxGeometry width="160" relative="1" as="geometry">
            <mxPoint x="520" y="430" as="sourcePoint" />
            <mxPoint x="680" y="430" as="targetPoint" />
          </mxGeometry>
        </mxCell>
        <mxCell id="5eROo0eHRWx0oekMJlQm-4" value="&lt;font style=&quot;font-size: 6px ; line-height: 10%&quot;&gt;扩展条件：{有任务需要删除}&lt;br style=&quot;font-size: 6px&quot;&gt;扩展点：删除任务&lt;/font&gt;" style="shape=note;whiteSpace=wrap;html=1;size=14;verticalAlign=top;align=left;spacingTop=-6;fillColor=#FAE5C7;strokeColor=#0F8B8D;fontColor=#143642;" parent="1" vertex="1">
          <mxGeometry x="450" y="400" width="120" height="50" as="geometry" />
        </mxCell>
        <mxCell id="5eROo0eHRWx0oekMJlQm-5" value="" style="endArrow=none;dashed=1;html=1;strokeColor=#A8201A;fontColor=#143642;exitX=0;exitY=0;exitDx=53;exitDy=0;exitPerimeter=0;labelBackgroundColor=#DAD2D8;" parent="1" source="5eROo0eHRWx0oekMJlQm-4" edge="1">
          <mxGeometry width="50" height="50" relative="1" as="geometry">
            <mxPoint x="480" y="270" as="sourcePoint" />
            <mxPoint x="470" y="360" as="targetPoint" />
          </mxGeometry>
        </mxCell>
        <mxCell id="5eROo0eHRWx0oekMJlQm-6" value="查看群日历" style="ellipse;whiteSpace=wrap;html=1;fillColor=#FAE5C7;strokeColor=#0F8B8D;fontColor=#143642;" parent="1" vertex="1">
          <mxGeometry x="402.5" y="600" width="117.5" height="60" as="geometry" />
        </mxCell>
        <mxCell id="5eROo0eHRWx0oekMJlQm-8" value="&amp;lt;&amp;lt;exntend&amp;gt;&amp;gt;" style="endArrow=open;endSize=12;dashed=1;html=1;exitX=0;exitY=0;exitDx=0;exitDy=0;entryX=1;entryY=1;entryDx=0;entryDy=0;strokeColor=#A8201A;fontColor=#143642;labelBackgroundColor=#DAD2D8;" parent="1" source="5eROo0eHRWx0oekMJlQm-6" target="Aq8MUgiEz7kiHm_kLCTz-9" edge="1">
          <mxGeometry width="160" relative="1" as="geometry">
            <mxPoint x="120" y="570" as="sourcePoint" />
            <mxPoint x="280" y="570" as="targetPoint" />
          </mxGeometry>
        </mxCell>
        <mxCell id="5eROo0eHRWx0oekMJlQm-9" value="扩展条件：{作为成员想查看该群组任务及日程}&lt;br&gt;扩展点：查看群日历" style="shape=note;whiteSpace=wrap;html=1;size=14;verticalAlign=top;align=left;spacingTop=-6;rounded=0;sketch=0;fillColor=#FAE5C7;strokeColor=#0F8B8D;fontColor=#143642;" parent="1" vertex="1">
          <mxGeometry x="195" y="600" width="135" height="50" as="geometry" />
        </mxCell>
        <mxCell id="5eROo0eHRWx0oekMJlQm-10" value="" style="endArrow=none;dashed=1;html=1;strokeColor=#A8201A;fontColor=#143642;exitX=0.5;exitY=0;exitDx=0;exitDy=0;exitPerimeter=0;labelBackgroundColor=#DAD2D8;" parent="1" source="5eROo0eHRWx0oekMJlQm-9" edge="1">
          <mxGeometry width="50" height="50" relative="1" as="geometry">
            <mxPoint x="500" y="590" as="sourcePoint" />
            <mxPoint x="330" y="570" as="targetPoint" />
          </mxGeometry>
        </mxCell>
      </root>
    </mxGraphModel>
  </diagram>
  <diagram id="CQz8t2itkyQ89M_VoTo9" name="Page-2">
    <mxGraphModel dx="1475" dy="246" grid="1" gridSize="10" guides="1" tooltips="1" connect="1" arrows="1" fold="1" page="1" pageScale="1" pageWidth="827" pageHeight="1169" math="0" shadow="0">
      <root>
        <mxCell id="s3CmU2joFz6qiKgKJhzo-0" />
        <mxCell id="s3CmU2joFz6qiKgKJhzo-1" parent="s3CmU2joFz6qiKgKJhzo-0" />
        <mxCell id="PdysoxyuoMA2rZShztXX-0" value="User" style="swimlane;fontStyle=1;align=center;verticalAlign=top;childLayout=stackLayout;horizontal=1;startSize=26;horizontalStack=0;resizeParent=1;resizeParentMax=0;resizeLast=0;collapsible=1;marginBottom=0;" parent="s3CmU2joFz6qiKgKJhzo-1" vertex="1">
          <mxGeometry x="70" y="140" width="180" height="190" as="geometry" />
        </mxCell>
        <mxCell id="PdysoxyuoMA2rZShztXX-1" value="+userID: int&#xa;+username:string&#xa;+usercalendar:Calender&#xa;+usergrouplist:Group[0...*]" style="text;strokeColor=none;fillColor=none;align=left;verticalAlign=top;spacingLeft=4;spacingRight=4;overflow=hidden;rotatable=0;points=[[0,0.5],[1,0.5]];portConstraint=eastwest;" parent="PdysoxyuoMA2rZShztXX-0" vertex="1">
          <mxGeometry y="26" width="180" height="74" as="geometry" />
        </mxCell>
        <mxCell id="PdysoxyuoMA2rZShztXX-2" value="" style="line;strokeWidth=1;fillColor=none;align=left;verticalAlign=middle;spacingTop=-1;spacingLeft=3;spacingRight=3;rotatable=0;labelPosition=right;points=[];portConstraint=eastwest;" parent="PdysoxyuoMA2rZShztXX-0" vertex="1">
          <mxGeometry y="100" width="180" height="18" as="geometry" />
        </mxCell>
        <mxCell id="PdysoxyuoMA2rZShztXX-3" value="+createGroup([in]mem:User[0...*])&#xa;+acceptGroup([in]newgroup&#xa;                                      :Group)" style="text;strokeColor=none;fillColor=none;align=left;verticalAlign=top;spacingLeft=4;spacingRight=4;overflow=hidden;rotatable=0;points=[[0,0.5],[1,0.5]];portConstraint=eastwest;" parent="PdysoxyuoMA2rZShztXX-0" vertex="1">
          <mxGeometry y="118" width="180" height="72" as="geometry" />
        </mxCell>
        <mxCell id="PdysoxyuoMA2rZShztXX-4" value="Task" style="swimlane;fontStyle=1;align=center;verticalAlign=top;childLayout=stackLayout;horizontal=1;startSize=26;horizontalStack=0;resizeParent=1;resizeParentMax=0;resizeLast=0;collapsible=1;marginBottom=0;" parent="s3CmU2joFz6qiKgKJhzo-1" vertex="1">
          <mxGeometry x="610" y="140" width="170" height="250" as="geometry" />
        </mxCell>
        <mxCell id="PdysoxyuoMA2rZShztXX-5" value="+type:int&#xa;+taskName:string&#xa;+taskId:int&#xa;+taskContent:String&#xa;-startTime:Date&#xa;-endTime:Date&#xa;+ergency:int&#xa;+member:Groupmember[1...*]" style="text;strokeColor=none;fillColor=none;align=left;verticalAlign=top;spacingLeft=4;spacingRight=4;overflow=hidden;rotatable=0;points=[[0,0.5],[1,0.5]];portConstraint=eastwest;" parent="PdysoxyuoMA2rZShztXX-4" vertex="1">
          <mxGeometry y="26" width="170" height="124" as="geometry" />
        </mxCell>
        <mxCell id="PdysoxyuoMA2rZShztXX-6" value="" style="line;strokeWidth=1;fillColor=none;align=left;verticalAlign=middle;spacingTop=-1;spacingLeft=3;spacingRight=3;rotatable=0;labelPosition=right;points=[];portConstraint=eastwest;" parent="PdysoxyuoMA2rZShztXX-4" vertex="1">
          <mxGeometry y="150" width="170" height="10" as="geometry" />
        </mxCell>
        <mxCell id="PdysoxyuoMA2rZShztXX-7" value="+setStartTime([in]startT:Date)&#xa;+setEndTime([in]endT:Date)&#xa;+setContent([in]content:string)&#xa;+setName([in]name:string)&#xa;+setTaker([in]Groupmember[1...*])" style="text;strokeColor=none;fillColor=none;align=left;verticalAlign=top;spacingLeft=4;spacingRight=4;overflow=hidden;rotatable=0;points=[[0,0.5],[1,0.5]];portConstraint=eastwest;" parent="PdysoxyuoMA2rZShztXX-4" vertex="1">
          <mxGeometry y="160" width="170" height="90" as="geometry" />
        </mxCell>
        <mxCell id="PdysoxyuoMA2rZShztXX-8" value="Calendar" style="swimlane;fontStyle=1;align=center;verticalAlign=top;childLayout=stackLayout;horizontal=1;startSize=26;horizontalStack=0;resizeParent=1;resizeParentMax=0;resizeLast=0;collapsible=1;marginBottom=0;" parent="s3CmU2joFz6qiKgKJhzo-1" vertex="1">
          <mxGeometry x="220" y="375" width="150" height="120" as="geometry" />
        </mxCell>
        <mxCell id="PdysoxyuoMA2rZShztXX-9" value="+startDate: Date&#xa;+endDate:Date&#xa;+taskList:Task[0...*]&#xa;" style="text;strokeColor=none;fillColor=none;align=left;verticalAlign=top;spacingLeft=4;spacingRight=4;overflow=hidden;rotatable=0;points=[[0,0.5],[1,0.5]];portConstraint=eastwest;" parent="PdysoxyuoMA2rZShztXX-8" vertex="1">
          <mxGeometry y="26" width="150" height="54" as="geometry" />
        </mxCell>
        <mxCell id="PdysoxyuoMA2rZShztXX-10" value="" style="line;strokeWidth=1;fillColor=none;align=left;verticalAlign=middle;spacingTop=-1;spacingLeft=3;spacingRight=3;rotatable=0;labelPosition=right;points=[];portConstraint=eastwest;" parent="PdysoxyuoMA2rZShztXX-8" vertex="1">
          <mxGeometry y="80" width="150" height="8" as="geometry" />
        </mxCell>
        <mxCell id="PdysoxyuoMA2rZShztXX-11" value="+showTask([in]date:Date)" style="text;strokeColor=none;fillColor=none;align=left;verticalAlign=top;spacingLeft=4;spacingRight=4;overflow=hidden;rotatable=0;points=[[0,0.5],[1,0.5]];portConstraint=eastwest;" parent="PdysoxyuoMA2rZShztXX-8" vertex="1">
          <mxGeometry y="88" width="150" height="32" as="geometry" />
        </mxCell>
        <mxCell id="PdysoxyuoMA2rZShztXX-12" value="Groupleader" style="swimlane;fontStyle=1;align=center;verticalAlign=top;childLayout=stackLayout;horizontal=1;startSize=26;horizontalStack=0;resizeParent=1;resizeParentMax=0;resizeLast=0;collapsible=1;marginBottom=0;" parent="s3CmU2joFz6qiKgKJhzo-1" vertex="1">
          <mxGeometry x="50" y="577" width="210" height="126" as="geometry" />
        </mxCell>
        <mxCell id="PdysoxyuoMA2rZShztXX-14" value="" style="line;strokeWidth=1;fillColor=none;align=left;verticalAlign=middle;spacingTop=-1;spacingLeft=3;spacingRight=3;rotatable=0;labelPosition=right;points=[];portConstraint=eastwest;" parent="PdysoxyuoMA2rZShztXX-12" vertex="1">
          <mxGeometry y="26" width="210" height="14" as="geometry" />
        </mxCell>
        <mxCell id="PdysoxyuoMA2rZShztXX-15" value="+makeProposal([in]newp:Proposal)&#xa;+agreeProposal([in]p:Proposal)&#xa;+disagreeProposal([in]p:Proposal)&#xa;+createTask([in]idlist:User[1...*])&#xa;+deleteTask([in]task:Task)" style="text;strokeColor=none;fillColor=none;align=left;verticalAlign=top;spacingLeft=4;spacingRight=4;overflow=hidden;rotatable=0;points=[[0,0.5],[1,0.5]];portConstraint=eastwest;" parent="PdysoxyuoMA2rZShztXX-12" vertex="1">
          <mxGeometry y="40" width="210" height="86" as="geometry" />
        </mxCell>
        <mxCell id="PdysoxyuoMA2rZShztXX-24" value="Group" style="swimlane;fontStyle=1;align=center;verticalAlign=top;childLayout=stackLayout;horizontal=1;startSize=26;horizontalStack=0;resizeParent=1;resizeParentMax=0;resizeLast=0;collapsible=1;marginBottom=0;" parent="s3CmU2joFz6qiKgKJhzo-1" vertex="1">
          <mxGeometry x="350" y="140" width="180" height="160" as="geometry" />
        </mxCell>
        <mxCell id="PdysoxyuoMA2rZShztXX-25" value="+groupID:int&#xa;+groupname:string&#xa;+groupcalendar:Calendar&#xa;+proposal:Proposal[0...*]&#xa;+member: Groupmember[0...*]&#xa;+leader:Groupleader" style="text;strokeColor=none;fillColor=none;align=left;verticalAlign=top;spacingLeft=4;spacingRight=4;overflow=hidden;rotatable=0;points=[[0,0.5],[1,0.5]];portConstraint=eastwest;" parent="PdysoxyuoMA2rZShztXX-24" vertex="1">
          <mxGeometry y="26" width="180" height="94" as="geometry" />
        </mxCell>
        <mxCell id="PdysoxyuoMA2rZShztXX-26" value="" style="line;strokeWidth=1;fillColor=none;align=left;verticalAlign=middle;spacingTop=-1;spacingLeft=3;spacingRight=3;rotatable=0;labelPosition=right;points=[];portConstraint=eastwest;" parent="PdysoxyuoMA2rZShztXX-24" vertex="1">
          <mxGeometry y="120" width="180" height="40" as="geometry" />
        </mxCell>
        <mxCell id="PdysoxyuoMA2rZShztXX-28" value="Groupmember" style="swimlane;fontStyle=1;align=center;verticalAlign=top;childLayout=stackLayout;horizontal=1;startSize=26;horizontalStack=0;resizeParent=1;resizeParentMax=0;resizeLast=0;collapsible=1;marginBottom=0;" parent="s3CmU2joFz6qiKgKJhzo-1" vertex="1">
          <mxGeometry x="335" y="579" width="210" height="120" as="geometry" />
        </mxCell>
        <mxCell id="PdysoxyuoMA2rZShztXX-30" value="" style="line;strokeWidth=1;fillColor=none;align=left;verticalAlign=middle;spacingTop=-1;spacingLeft=3;spacingRight=3;rotatable=0;labelPosition=right;points=[];portConstraint=eastwest;" parent="PdysoxyuoMA2rZShztXX-28" vertex="1">
          <mxGeometry y="26" width="210" height="14" as="geometry" />
        </mxCell>
        <mxCell id="PdysoxyuoMA2rZShztXX-31" value="+makeProposal([in]newp:Proposal)&#xa;+agreeProposal([in]p:Proposal)&#xa;+disagreeProposal([in]p:Proposal)&#xa;+acceptTask([in]newtask:Task)" style="text;strokeColor=none;fillColor=none;align=left;verticalAlign=top;spacingLeft=4;spacingRight=4;overflow=hidden;rotatable=0;points=[[0,0.5],[1,0.5]];portConstraint=eastwest;" parent="PdysoxyuoMA2rZShztXX-28" vertex="1">
          <mxGeometry y="40" width="210" height="80" as="geometry" />
        </mxCell>
        <mxCell id="Y23ocBf9g7m8OuL6y5b0-1" value="Proposal" style="swimlane;fontStyle=1;align=center;verticalAlign=top;childLayout=stackLayout;horizontal=1;startSize=26;horizontalStack=0;resizeParent=1;resizeParentMax=0;resizeLast=0;collapsible=1;marginBottom=0;" vertex="1" parent="s3CmU2joFz6qiKgKJhzo-1">
          <mxGeometry x="610" y="430" width="170" height="160" as="geometry" />
        </mxCell>
        <mxCell id="Y23ocBf9g7m8OuL6y5b0-2" value="+name:string&#xa;+content:string&#xa;+agreeCount:int&#xa;+disagreeCount:int" style="text;strokeColor=none;fillColor=none;align=left;verticalAlign=top;spacingLeft=4;spacingRight=4;overflow=hidden;rotatable=0;points=[[0,0.5],[1,0.5]];portConstraint=eastwest;" vertex="1" parent="Y23ocBf9g7m8OuL6y5b0-1">
          <mxGeometry y="26" width="170" height="74" as="geometry" />
        </mxCell>
        <mxCell id="Y23ocBf9g7m8OuL6y5b0-3" value="" style="line;strokeWidth=1;fillColor=none;align=left;verticalAlign=middle;spacingTop=-1;spacingLeft=3;spacingRight=3;rotatable=0;labelPosition=right;points=[];portConstraint=eastwest;" vertex="1" parent="Y23ocBf9g7m8OuL6y5b0-1">
          <mxGeometry y="100" width="170" height="10" as="geometry" />
        </mxCell>
        <mxCell id="Y23ocBf9g7m8OuL6y5b0-4" value="+setName([in]name:string)&#xa;+setContent([in]content:string)" style="text;strokeColor=none;fillColor=none;align=left;verticalAlign=top;spacingLeft=4;spacingRight=4;overflow=hidden;rotatable=0;points=[[0,0.5],[1,0.5]];portConstraint=eastwest;" vertex="1" parent="Y23ocBf9g7m8OuL6y5b0-1">
          <mxGeometry y="110" width="170" height="50" as="geometry" />
        </mxCell>
        <mxCell id="Y23ocBf9g7m8OuL6y5b0-21" value="" style="endArrow=none;html=1;exitX=1;exitY=0;exitDx=0;exitDy=0;edgeStyle=orthogonalEdgeStyle;" edge="1" parent="s3CmU2joFz6qiKgKJhzo-1" source="PdysoxyuoMA2rZShztXX-12" target="PdysoxyuoMA2rZShztXX-11">
          <mxGeometry width="50" height="50" relative="1" as="geometry">
            <mxPoint x="200" y="600" as="sourcePoint" />
            <mxPoint x="250" y="550" as="targetPoint" />
          </mxGeometry>
        </mxCell>
        <mxCell id="Y23ocBf9g7m8OuL6y5b0-22" value="" style="triangle;whiteSpace=wrap;html=1;rotation=-90;" vertex="1" parent="s3CmU2joFz6qiKgKJhzo-1">
          <mxGeometry x="190" y="465" width="10" height="15" as="geometry" />
        </mxCell>
        <mxCell id="Y23ocBf9g7m8OuL6y5b0-23" value="manage" style="text;html=1;resizable=0;autosize=1;align=center;verticalAlign=middle;points=[];fillColor=none;strokeColor=none;rounded=0;rotation=-90;" vertex="1" parent="s3CmU2joFz6qiKgKJhzo-1">
          <mxGeometry x="165" y="502.5" width="60" height="20" as="geometry" />
        </mxCell>
        <mxCell id="Y23ocBf9g7m8OuL6y5b0-24" value="1" style="text;html=1;resizable=0;autosize=1;align=center;verticalAlign=middle;points=[];fillColor=none;strokeColor=none;rounded=0;" vertex="1" parent="s3CmU2joFz6qiKgKJhzo-1">
          <mxGeometry x="240" y="550" width="20" height="20" as="geometry" />
        </mxCell>
        <mxCell id="Y23ocBf9g7m8OuL6y5b0-25" value="1" style="text;html=1;resizable=0;autosize=1;align=center;verticalAlign=middle;points=[];fillColor=none;strokeColor=none;rounded=0;" vertex="1" parent="s3CmU2joFz6qiKgKJhzo-1">
          <mxGeometry x="260" y="670" width="20" height="20" as="geometry" />
        </mxCell>
        <mxCell id="Y23ocBf9g7m8OuL6y5b0-26" value="" style="endArrow=none;html=1;exitX=1;exitY=0.5;exitDx=0;exitDy=0;entryX=0;entryY=0.5;entryDx=0;entryDy=0;" edge="1" parent="s3CmU2joFz6qiKgKJhzo-1" source="PdysoxyuoMA2rZShztXX-15" target="PdysoxyuoMA2rZShztXX-31">
          <mxGeometry width="50" height="50" relative="1" as="geometry">
            <mxPoint x="270" y="670" as="sourcePoint" />
            <mxPoint x="320" y="620" as="targetPoint" />
          </mxGeometry>
        </mxCell>
        <mxCell id="Y23ocBf9g7m8OuL6y5b0-27" value="manage" style="text;html=1;resizable=0;autosize=1;align=center;verticalAlign=middle;points=[];fillColor=none;strokeColor=none;rounded=0;rotation=0;" vertex="1" parent="s3CmU2joFz6qiKgKJhzo-1">
          <mxGeometry x="265" y="635" width="60" height="20" as="geometry" />
        </mxCell>
        <mxCell id="Y23ocBf9g7m8OuL6y5b0-28" value="*" style="text;html=1;resizable=0;autosize=1;align=center;verticalAlign=middle;points=[];fillColor=none;strokeColor=none;rounded=0;" vertex="1" parent="s3CmU2joFz6qiKgKJhzo-1">
          <mxGeometry x="310" y="670" width="20" height="20" as="geometry" />
        </mxCell>
        <mxCell id="Y23ocBf9g7m8OuL6y5b0-30" value="1" style="text;html=1;resizable=0;autosize=1;align=center;verticalAlign=middle;points=[];fillColor=none;strokeColor=none;rounded=0;" vertex="1" parent="s3CmU2joFz6qiKgKJhzo-1">
          <mxGeometry x="220" y="500" width="20" height="20" as="geometry" />
        </mxCell>
        <mxCell id="Y23ocBf9g7m8OuL6y5b0-31" value="" style="triangle;whiteSpace=wrap;html=1;rotation=0;" vertex="1" parent="s3CmU2joFz6qiKgKJhzo-1">
          <mxGeometry x="325" y="640" width="10" height="10" as="geometry" />
        </mxCell>
        <mxCell id="Y23ocBf9g7m8OuL6y5b0-32" value="" style="endArrow=block;endSize=16;endFill=0;html=1;exitX=0.25;exitY=0;exitDx=0;exitDy=0;entryX=-0.01;entryY=1.079;entryDx=0;entryDy=0;edgeStyle=orthogonalEdgeStyle;entryPerimeter=0;" edge="1" parent="s3CmU2joFz6qiKgKJhzo-1" source="PdysoxyuoMA2rZShztXX-12" target="PdysoxyuoMA2rZShztXX-1">
          <mxGeometry width="160" relative="1" as="geometry">
            <mxPoint y="370" as="sourcePoint" />
            <mxPoint x="160" y="370" as="targetPoint" />
            <Array as="points">
              <mxPoint x="103" y="443" />
              <mxPoint x="30" y="443" />
              <mxPoint x="30" y="246" />
            </Array>
          </mxGeometry>
        </mxCell>
        <mxCell id="Y23ocBf9g7m8OuL6y5b0-34" value="" style="endArrow=block;endSize=16;endFill=0;html=1;edgeStyle=orthogonalEdgeStyle;entryX=0.5;entryY=0;entryDx=0;entryDy=0;" edge="1" parent="s3CmU2joFz6qiKgKJhzo-1" source="PdysoxyuoMA2rZShztXX-31" target="PdysoxyuoMA2rZShztXX-0">
          <mxGeometry width="160" relative="1" as="geometry">
            <mxPoint x="-90" y="280" as="sourcePoint" />
            <mxPoint x="70" y="280" as="targetPoint" />
            <Array as="points">
              <mxPoint x="429" y="750" />
              <mxPoint x="10" y="750" />
              <mxPoint x="10" y="80" />
              <mxPoint x="160" y="80" />
            </Array>
          </mxGeometry>
        </mxCell>
        <mxCell id="Y23ocBf9g7m8OuL6y5b0-44" value="" style="endArrow=open;endSize=12;dashed=1;html=1;exitX=0;exitY=0.5;exitDx=0;exitDy=0;entryX=0.75;entryY=0;entryDx=0;entryDy=0;edgeStyle=orthogonalEdgeStyle;" edge="1" parent="s3CmU2joFz6qiKgKJhzo-1" source="PdysoxyuoMA2rZShztXX-25" target="PdysoxyuoMA2rZShztXX-8">
          <mxGeometry width="160" relative="1" as="geometry">
            <mxPoint x="270" y="370" as="sourcePoint" />
            <mxPoint x="430" y="370" as="targetPoint" />
          </mxGeometry>
        </mxCell>
        <mxCell id="Y23ocBf9g7m8OuL6y5b0-45" value="" style="endArrow=open;endSize=12;dashed=1;html=1;exitX=1;exitY=0;exitDx=0;exitDy=0;entryX=0.5;entryY=0;entryDx=0;entryDy=0;edgeStyle=orthogonalEdgeStyle;" edge="1" parent="s3CmU2joFz6qiKgKJhzo-1" source="PdysoxyuoMA2rZShztXX-0" target="PdysoxyuoMA2rZShztXX-8">
          <mxGeometry width="160" relative="1" as="geometry">
            <mxPoint x="300" y="200" as="sourcePoint" />
            <mxPoint x="460" y="200" as="targetPoint" />
          </mxGeometry>
        </mxCell>
        <mxCell id="Y23ocBf9g7m8OuL6y5b0-46" value="" style="endArrow=open;endSize=12;dashed=1;html=1;entryX=0.5;entryY=0;entryDx=0;entryDy=0;edgeStyle=orthogonalEdgeStyle;exitX=1;exitY=0.5;exitDx=0;exitDy=0;" edge="1" parent="s3CmU2joFz6qiKgKJhzo-1" source="PdysoxyuoMA2rZShztXX-9" target="PdysoxyuoMA2rZShztXX-4">
          <mxGeometry width="160" relative="1" as="geometry">
            <mxPoint x="580" y="320" as="sourcePoint" />
            <mxPoint x="520" y="70" as="targetPoint" />
            <Array as="points">
              <mxPoint x="580" y="428" />
              <mxPoint x="580" y="80" />
              <mxPoint x="695" y="80" />
            </Array>
          </mxGeometry>
        </mxCell>
        <mxCell id="Y23ocBf9g7m8OuL6y5b0-47" value="" style="endArrow=open;endSize=12;dashed=1;html=1;exitX=0.75;exitY=1;exitDx=0;exitDy=0;entryX=0;entryY=0.5;entryDx=0;entryDy=0;edgeStyle=orthogonalEdgeStyle;" edge="1" parent="s3CmU2joFz6qiKgKJhzo-1" source="PdysoxyuoMA2rZShztXX-24" target="Y23ocBf9g7m8OuL6y5b0-2">
          <mxGeometry width="160" relative="1" as="geometry">
            <mxPoint x="400" y="400" as="sourcePoint" />
            <mxPoint x="530" y="480" as="targetPoint" />
          </mxGeometry>
        </mxCell>
        <mxCell id="Y23ocBf9g7m8OuL6y5b0-63" value="" style="endArrow=none;html=1;exitX=0.75;exitY=0;exitDx=0;exitDy=0;entryX=0.25;entryY=0;entryDx=0;entryDy=0;edgeStyle=orthogonalEdgeStyle;" edge="1" parent="s3CmU2joFz6qiKgKJhzo-1" source="PdysoxyuoMA2rZShztXX-0" target="PdysoxyuoMA2rZShztXX-4">
          <mxGeometry width="50" height="50" relative="1" as="geometry">
            <mxPoint x="490" y="240" as="sourcePoint" />
            <mxPoint x="540" y="190" as="targetPoint" />
            <Array as="points">
              <mxPoint x="205" y="100" />
              <mxPoint x="652" y="100" />
            </Array>
          </mxGeometry>
        </mxCell>
        <mxCell id="Y23ocBf9g7m8OuL6y5b0-64" value="accomplish" style="edgeLabel;html=1;align=center;verticalAlign=middle;resizable=0;points=[];" vertex="1" connectable="0" parent="Y23ocBf9g7m8OuL6y5b0-63">
          <mxGeometry x="0.142" y="-2" relative="1" as="geometry">
            <mxPoint x="1" as="offset" />
          </mxGeometry>
        </mxCell>
        <mxCell id="Y23ocBf9g7m8OuL6y5b0-65" value="" style="triangle;whiteSpace=wrap;html=1;rotation=0;" vertex="1" parent="s3CmU2joFz6qiKgKJhzo-1">
          <mxGeometry x="503" y="76" width="15" height="19" as="geometry" />
        </mxCell>
        <mxCell id="Y23ocBf9g7m8OuL6y5b0-68" value="*" style="text;html=1;resizable=0;autosize=1;align=center;verticalAlign=middle;points=[];fillColor=none;strokeColor=none;rounded=0;" vertex="1" parent="s3CmU2joFz6qiKgKJhzo-1">
          <mxGeometry x="180" y="110" width="20" height="20" as="geometry" />
        </mxCell>
        <mxCell id="Y23ocBf9g7m8OuL6y5b0-69" value="*" style="text;html=1;resizable=0;autosize=1;align=center;verticalAlign=middle;points=[];fillColor=none;strokeColor=none;rounded=0;" vertex="1" parent="s3CmU2joFz6qiKgKJhzo-1">
          <mxGeometry x="620" y="110" width="20" height="20" as="geometry" />
        </mxCell>
        <mxCell id="Y23ocBf9g7m8OuL6y5b0-70" value="" style="endArrow=none;html=1;entryX=0;entryY=0.5;entryDx=0;entryDy=0;exitX=0;exitY=0.5;exitDx=0;exitDy=0;edgeStyle=orthogonalEdgeStyle;" edge="1" parent="s3CmU2joFz6qiKgKJhzo-1" source="PdysoxyuoMA2rZShztXX-9" target="PdysoxyuoMA2rZShztXX-3">
          <mxGeometry width="50" height="50" relative="1" as="geometry">
            <mxPoint x="80" y="420" as="sourcePoint" />
            <mxPoint x="130" y="370" as="targetPoint" />
          </mxGeometry>
        </mxCell>
        <mxCell id="Y23ocBf9g7m8OuL6y5b0-73" value="1" style="text;html=1;resizable=0;autosize=1;align=center;verticalAlign=middle;points=[];fillColor=none;strokeColor=none;rounded=0;" vertex="1" parent="s3CmU2joFz6qiKgKJhzo-1">
          <mxGeometry x="70" y="340" width="20" height="20" as="geometry" />
        </mxCell>
        <mxCell id="Y23ocBf9g7m8OuL6y5b0-74" value="1" style="text;html=1;resizable=0;autosize=1;align=center;verticalAlign=middle;points=[];fillColor=none;strokeColor=none;rounded=0;" vertex="1" parent="s3CmU2joFz6qiKgKJhzo-1">
          <mxGeometry x="200" y="409" width="20" height="20" as="geometry" />
        </mxCell>
        <mxCell id="Y23ocBf9g7m8OuL6y5b0-75" value="check" style="text;html=1;resizable=0;autosize=1;align=center;verticalAlign=middle;points=[];fillColor=none;strokeColor=none;rounded=0;" vertex="1" parent="s3CmU2joFz6qiKgKJhzo-1">
          <mxGeometry x="85" y="410" width="50" height="20" as="geometry" />
        </mxCell>
        <mxCell id="Y23ocBf9g7m8OuL6y5b0-76" value="" style="triangle;whiteSpace=wrap;html=1;rotation=0;" vertex="1" parent="s3CmU2joFz6qiKgKJhzo-1">
          <mxGeometry x="135" y="410" width="15" height="19" as="geometry" />
        </mxCell>
        <mxCell id="Y23ocBf9g7m8OuL6y5b0-86" value="" style="html=1;verticalAlign=bottom;endArrow=open;dashed=1;endSize=8;entryX=0.5;entryY=0;entryDx=0;entryDy=0;exitX=0.5;exitY=1;exitDx=0;exitDy=0;edgeStyle=orthogonalEdgeStyle;" edge="1" parent="s3CmU2joFz6qiKgKJhzo-1" source="PdysoxyuoMA2rZShztXX-24" target="PdysoxyuoMA2rZShztXX-12">
          <mxGeometry relative="1" as="geometry">
            <mxPoint x="290" y="470" as="sourcePoint" />
            <mxPoint x="150" y="540" as="targetPoint" />
            <Array as="points">
              <mxPoint x="440" y="350" />
              <mxPoint x="155" y="350" />
            </Array>
          </mxGeometry>
        </mxCell>
        <mxCell id="Y23ocBf9g7m8OuL6y5b0-87" value="" style="html=1;verticalAlign=bottom;endArrow=open;dashed=1;endSize=8;entryX=0.5;entryY=0;entryDx=0;entryDy=0;" edge="1" parent="s3CmU2joFz6qiKgKJhzo-1" target="PdysoxyuoMA2rZShztXX-28">
          <mxGeometry relative="1" as="geometry">
            <mxPoint x="440" y="300" as="sourcePoint" />
            <mxPoint x="330" y="360" as="targetPoint" />
          </mxGeometry>
        </mxCell>
      </root>
    </mxGraphModel>
  </diagram>
</mxfile>
